<svg xmlns="http://www.w3.org/2000/svg" viewBox="0 0 1067.42 666.98"><defs><style>.cls-1{fill:#806857;}.cls-2{fill:#ffa360;}.cls-3{fill:#cc824e;}</style></defs><title>logo_texto</title><g id="Layer_2" data-name="Layer 2"><g id="Layer_1-2" data-name="Layer 1"><path class="cls-1" d="M556.91,407.34q1.8,0,4.18,2.69a55.67,55.67,0,0,0,18.25,13.08A51.17,51.17,0,0,0,600.68,428q11.64,0,11.64-7.06,0-4.49-4.08-10.1t-19.49-22.23q-19.41-21-25.87-31.14-8.55-13.42-8.55-25.56,0-18.3,16.31-29.94,16-11.44,39.49-11.44a68.12,68.12,0,0,1,30.14,6.66,39.81,39.81,0,0,1,8.91,6c2.48,2.26,3.73,4.15,3.73,5.67a2.74,2.74,0,0,1-1,2,3.2,3.2,0,0,1-2.14,1c-1.13,0-2.78-1-5-3.09a42.1,42.1,0,0,0-14.13-8.4A47.22,47.22,0,0,0,613.81,297a14.17,14.17,0,0,0-8.11,2.14,6.47,6.47,0,0,0-3.13,5.53q0,4.08,3.87,9.95t13.13,15.62q29.26,31.13,35.82,42,6.87,11.43,6.87,22.08a32.51,32.51,0,0,1-4.88,17.11,38.66,38.66,0,0,1-13.53,13.23q-16.51,9.86-40.28,9.85-21.89,0-38.5-11.34-11.64-8-11.64-12.44a3.2,3.2,0,0,1,1.05-2.33A3.3,3.3,0,0,1,556.91,407.34Z"/><path class="cls-1" d="M719.55,379.29v30.84q0,8.94,1.1,11.34,2.08,4.57,9.85,4.57a46.27,46.27,0,0,0,22.82-6.31,61.69,61.69,0,0,0,19.55-17.46,31.65,31.65,0,0,1,3.88-4.68,4,4,0,0,1,2.59-1,3.53,3.53,0,0,1,2.78,1.24,4.59,4.59,0,0,1,1.1,3.14q0,4.17-6.67,11.24a67.25,67.25,0,0,1-21.73,14.72,63.06,63.06,0,0,1-25.32,5.67,57,57,0,0,1-56.4-56.3,57.59,57.59,0,0,1,4-20.75A55.49,55.49,0,0,1,688,337.61a56.54,56.54,0,0,1,41.78-18.5A55.3,55.3,0,0,1,763.12,330q23.28,16.91,23.08,49H763l-29.84.1ZM745,372.72v-29c-.13-6.22-.27-9.94-.4-11.17a6.89,6.89,0,0,0-1.39-3.42q-2.79-3.87-11.34-3.88-8.76,0-10.94,4.47-1.4,2.68-1.4,14v29l12.14.4Z"/><path class="cls-1" d="M841.51,379.29v30.84q0,8.94,1.09,11.34,2.1,4.57,9.85,4.57a46.33,46.33,0,0,0,22.83-6.31,61.8,61.8,0,0,0,19.55-17.46,31,31,0,0,1,3.88-4.68,3.94,3.94,0,0,1,2.58-1,3.55,3.55,0,0,1,2.79,1.24,4.58,4.58,0,0,1,1.09,3.14q0,4.17-6.66,11.24a67.3,67.3,0,0,1-21.74,14.72,63,63,0,0,1-25.31,5.67,56.95,56.95,0,0,1-56.4-56.3,57.79,57.79,0,0,1,4-20.75,55.51,55.51,0,0,1,11-17.95,56.54,56.54,0,0,1,41.78-18.5A55.34,55.34,0,0,1,885.08,330q23.28,16.91,23.08,49H885l-29.84.1ZM867,372.72v-29q-.21-9.33-.4-11.17a7,7,0,0,0-1.39-3.42q-2.79-3.87-11.35-3.88-8.75,0-10.94,4.47-1.39,2.68-1.39,14v29l12.14.4Z"/><path class="cls-1" d="M1010.54,342.51l11.32,18.81,10.82,18.32q16,26.49,21.78,35a114.53,114.53,0,0,0,13,15.78h-59.18l-18.35-32.13q-10.12-18-15.48-26.06v4.57l.1,17.91.2,31,.1,4.68h-51l.48-47.95.12-27.65-.48-55.51-.12-4.67h51l-.4,65.35v5.37q27.71-25,38.24-32.72,13.71-10.35,23.94-10.35,7.65,0,7.65,5.57a4.45,4.45,0,0,1-1.39,3.33,4.77,4.77,0,0,1-3.47,1.35,9.52,9.52,0,0,1-2.77-.5,16.9,16.9,0,0,0-4.26-.8,19.2,19.2,0,0,0-8.82,2.42A97.24,97.24,0,0,0,1010.54,342.51Z"/><path class="cls-1" d="M640.79,577l-2.78-2.8L570.56,641.6l1.64,1.63,17.89,17.86c11.46,11.48,35.85,5.68,54.49-12.93s24.41-43,12.95-54.49L640.82,577Z"/><polygon class="cls-2" points="621.5 557.94 554.06 625.34 570.56 641.6 638.01 574.16 636.08 572.23 636.03 572.26 621.5 557.94"/><path class="cls-1" d="M262.79,0C117.65,0,0,117.68,0,262.82s117.65,262.8,262.79,262.8a261.5,261.5,0,0,0,145.43-43.94L554.06,625.34l67.44-67.4L476.62,415.24a261.32,261.32,0,0,0,49-152.42C525.61,117.68,408,0,262.79,0Zm3.59,447.61c-102,0-184.79-82.72-184.79-184.79S164.34,78,266.38,78s184.8,82.71,184.8,184.78A184.78,184.78,0,0,1,266.38,447.61Z"/><path class="cls-3" d="M385,202.35c-.71,3.36-1.42,6.7-2.14,10.06H207.9v8.21H381.07c-1.54,7.23-3.06,14.44-4.62,21.66H218.65v8.22h156q-2.31,11-4.67,22H230.66v8.24H368.28l-4.35,20.37a4.62,4.62,0,0,1-4.38,3.38H213.44c1.64,7.85,3.3,15.72,4.91,23.57h134c12.29,0,21.2,9.74,22.42,21.52a4.25,4.25,0,0,1,.14,1.36,5.22,5.22,0,0,1-.14,1.36c-1.26,12.2-10.72,22-23.41,21.45a23,23,0,0,1-21.59-22.81,22.66,22.66,0,0,1,4.65-13.67H234.78a25.42,25.42,0,0,1,4.63,12.31,6.38,6.38,0,0,1,.14,1.36,6.25,6.25,0,0,1-.14,1.36c-1.29,12.2-10.75,22-23.41,21.45a22.86,22.86,0,0,1-6.61-44.28l-3.68-17.61L190.8,240.28a4.58,4.58,0,0,1-.37-1.75q-8.12-38.73-16.16-77.43H152.06c-5.85,0-5.82-9.2,0-9.2H178a4.6,4.6,0,0,1,4.38,3.38c1.51,7.32,3.06,14.68,4.6,22,1.33,6.43,2.65,12.85,4,19.25H380.59A4.63,4.63,0,0,1,385,202.35Z"/></g></g></svg>