<svg xmlns="http://www.w3.org/2000/svg" width="400.695" height="241.44" viewBox="0 0 400.695 241.44">
  <g id="undraw_business_shop_qw5t" transform="translate(-4.816 -85.269)">
    <ellipse id="Elipse_10" data-name="Elipse 10" cx="200.348" cy="15.652" rx="200.348" ry="15.652" transform="translate(4.816 295.405)" fill="#3f3d56"/>
    <path id="Caminho_100" data-name="Caminho 100" d="M815.628,303.812s1.252,16.9,1.252,17.526-8.763,43.815-8.763,43.815-12.519,23.785,0,23.159,8.763-22.533,8.763-22.533l13.144-36.3-5.633-25.663Z" transform="translate(-502.247 -210.862)" fill="#a0616a"/>
    <rect id="Retângulo_21" data-name="Retângulo 21" width="248.731" height="174.725" transform="translate(70.396 136.213)" fill="#f2f2f2"/>
    <rect id="Retângulo_22" data-name="Retângulo 22" width="62.454" height="109.023" transform="translate(91.334 202.879)" fill="#3f3d56"/>
    <rect id="Retângulo_23" data-name="Retângulo 23" width="16.823" height="15.683" transform="translate(102.886 209.42)" fill="#f2f2f2"/>
    <rect id="Retângulo_24" data-name="Retângulo 24" width="16.823" height="15.683" transform="translate(125.412 209.42)" fill="#f2f2f2"/>
    <rect id="Retângulo_25" data-name="Retângulo 25" width="16.823" height="16.253" transform="translate(102.886 230.805)" fill="#f2f2f2"/>
    <rect id="Retângulo_26" data-name="Retângulo 26" width="16.823" height="16.253" transform="translate(125.412 230.805)" fill="#f2f2f2"/>
    <circle id="Elipse_12" data-name="Elipse 12" cx="3.971" cy="3.971" r="3.971" transform="translate(141.874 260.76)" fill="#ffa360"/>
    <rect id="Retângulo_27" data-name="Retângulo 27" width="123.463" height="103.608" transform="translate(174.726 192.53)" fill="#3f3d56"/>
    <path id="Caminho_109" data-name="Caminho 109" d="M392.914,260.89H92.2l20.05-41.92,4.487-9.386,5.87-12.274,4.487-9.386,5.2-10.873H369.222l3.072,10.873,2.653,9.386,3.469,12.274,2.653,9.386Z" transform="translate(-47.796 -91.782)" fill="#3f3d56"/>
    <rect id="Retângulo_28" data-name="Retângulo 28" width="4.332" height="26.714" transform="translate(179.058 235.489)" fill="#ffa360"/>
    <rect id="Retângulo_29" data-name="Retângulo 29" width="4.332" height="3.249" transform="translate(179.058 239.46)" fill="#f2f2f2"/>
    <rect id="Retângulo_30" data-name="Retângulo 30" width="4.332" height="3.249" transform="translate(179.058 254.983)" fill="#f2f2f2"/>
    <rect id="Retângulo_31" data-name="Retângulo 31" width="10.469" height="26.714" transform="translate(185.556 235.489)" fill="#ffa360"/>
    <rect id="Retângulo_32" data-name="Retângulo 32" width="10.469" height="3.249" transform="translate(185.556 239.46)" fill="#f2f2f2"/>
    <rect id="Retângulo_33" data-name="Retângulo 33" width="10.469" height="3.249" transform="translate(185.556 254.983)" fill="#f2f2f2"/>
    <rect id="Retângulo_34" data-name="Retângulo 34" width="4.332" height="26.714" transform="translate(198.552 235.489)" fill="#ffa360"/>
    <rect id="Retângulo_35" data-name="Retângulo 35" width="4.332" height="3.249" transform="translate(198.552 239.46)" fill="#f2f2f2"/>
    <rect id="Retângulo_36" data-name="Retângulo 36" width="4.332" height="3.249" transform="translate(198.552 254.983)" fill="#f2f2f2"/>
    <rect id="Retângulo_37" data-name="Retângulo 37" width="4.332" height="26.714" transform="translate(205.05 235.489)" fill="#ffa360"/>
    <rect id="Retângulo_38" data-name="Retângulo 38" width="4.332" height="3.249" transform="translate(205.05 239.46)" fill="#f2f2f2"/>
    <rect id="Retângulo_39" data-name="Retângulo 39" width="4.332" height="3.249" transform="translate(205.05 254.983)" fill="#f2f2f2"/>
    <rect id="Retângulo_40" data-name="Retângulo 40" width="4.332" height="26.714" transform="translate(209.505 237.111) rotate(-20.654)" fill="#ffa360"/>
    <rect id="Retângulo_41" data-name="Retângulo 41" width="4.332" height="3.249" transform="translate(210.906 240.827) rotate(-20.654)" fill="#f2f2f2"/>
    <rect id="Retângulo_42" data-name="Retângulo 42" width="4.332" height="3.249" transform="translate(216.381 255.353) rotate(-20.654)" fill="#f2f2f2"/>
    <rect id="Retângulo_43" data-name="Retângulo 43" width="10.469" height="26.714" transform="translate(283.749 235.489)" fill="#ffa360"/>
    <rect id="Retângulo_44" data-name="Retângulo 44" width="10.469" height="3.249" transform="translate(283.749 239.46)" fill="#f2f2f2"/>
    <rect id="Retângulo_45" data-name="Retângulo 45" width="10.469" height="3.249" transform="translate(283.749 254.983)" fill="#f2f2f2"/>
    <rect id="Retângulo_46" data-name="Retângulo 46" width="4.332" height="26.714" transform="translate(276.89 235.489)" fill="#ffa360"/>
    <rect id="Retângulo_47" data-name="Retângulo 47" width="4.332" height="3.249" transform="translate(276.89 239.46)" fill="#f2f2f2"/>
    <rect id="Retângulo_48" data-name="Retângulo 48" width="4.332" height="3.249" transform="translate(276.89 254.983)" fill="#f2f2f2"/>
    <rect id="Retângulo_49" data-name="Retângulo 49" width="4.332" height="26.714" transform="translate(270.391 235.489)" fill="#ffa360"/>
    <rect id="Retângulo_50" data-name="Retângulo 50" width="4.332" height="3.249" transform="translate(270.391 239.46)" fill="#f2f2f2"/>
    <rect id="Retângulo_51" data-name="Retângulo 51" width="4.332" height="3.249" transform="translate(270.391 254.983)" fill="#f2f2f2"/>
    <rect id="Retângulo_52" data-name="Retângulo 52" width="26.714" height="4.332" transform="translate(256.797 260.581) rotate(-69.346)" fill="#ffa360"/>
    <rect id="Retângulo_53" data-name="Retângulo 53" width="3.249" height="4.332" transform="translate(263.673 242.34) rotate(-69.346)" fill="#f2f2f2"/>
    <rect id="Retângulo_54" data-name="Retângulo 54" width="3.249" height="4.332" transform="translate(258.197 256.866) rotate(-69.346)" fill="#f2f2f2"/>
    <rect id="Retângulo_55" data-name="Retângulo 55" width="123.463" height="2.527" transform="translate(174.726 262.204)" fill="#f2f2f2"/>
    <rect id="Retângulo_56" data-name="Retângulo 56" width="22.743" height="26.714" transform="translate(228.515 235.489)" fill="#ffa360"/>
    <rect id="Retângulo_57" data-name="Retângulo 57" width="11.552" height="5.054" transform="translate(234.111 241.265)" fill="#f2f2f2"/>
    <rect id="Retângulo_58" data-name="Retângulo 58" width="2.166" height="23.104" transform="translate(235.374 192.53)" fill="#f2f2f2"/>
    <circle id="Elipse_13" data-name="Elipse 13" cx="3.61" cy="3.61" r="3.61" transform="translate(232.847 212.024)" fill="#f2f2f2"/>
    <path id="Caminho_110" data-name="Caminho 110" d="M407.678,209.014H155.337l4.487-9.386h245.2Z" transform="translate(-80.526 -103.486)" fill="#ffa360"/>
    <path id="Caminho_111" data-name="Caminho 111" d="M402.652,253.989H133.831l4.487-9.386H400Z" transform="translate(-69.377 -126.801)" fill="#ffa360"/>
  </g>
</svg>
