<svg xmlns="http://www.w3.org/2000/svg" viewBox="0 0 513.98 143.94"><defs><style>.cls-1{fill:#806857;}</style></defs><title>texto</title><g id="Layer_2" data-name="Layer 2"><g id="Layer_1-2" data-name="Layer 1"><path class="cls-1" d="M3.48,116.78c1.19,0,2.59.9,4.18,2.69a55.67,55.67,0,0,0,18.25,13.08,51.17,51.17,0,0,0,21.34,4.92q11.64,0,11.64-7.06,0-4.47-4.08-10.1T35.32,98.08Q15.91,77.1,9.45,67,.9,53.51.89,41.38q0-18.3,16.32-29.94Q33.23,0,56.7,0A68.12,68.12,0,0,1,86.84,6.66a39.51,39.51,0,0,1,8.9,6Q99.48,16,99.47,18.3a2.72,2.72,0,0,1-1,2,3.2,3.2,0,0,1-2.14.95c-1.13,0-2.78-1-5-3.09A42.1,42.1,0,0,0,77.19,9.8,47.2,47.2,0,0,0,60.38,6.47a14.07,14.07,0,0,0-8.11,2.14,6.42,6.42,0,0,0-3.13,5.52q0,4.08,3.87,9.95T66.14,39.7q29.25,31.13,35.82,42,6.87,11.44,6.86,22.08A32.49,32.49,0,0,1,104,120.86a38.66,38.66,0,0,1-13.53,13.23q-16.51,9.85-40.29,9.85-21.87,0-38.49-11.34Q0,124.64,0,120.17a3.23,3.23,0,0,1,1-2.34A3.34,3.34,0,0,1,3.48,116.78Z"/><path class="cls-1" d="M166.12,88.73v30.84q0,9,1.1,11.34,2.09,4.58,9.84,4.57a46.28,46.28,0,0,0,22.83-6.31,61.8,61.8,0,0,0,19.55-17.46,31,31,0,0,1,3.88-4.68,4,4,0,0,1,2.59-1,3.57,3.57,0,0,1,2.78,1.24,4.59,4.59,0,0,1,1.1,3.14q0,4.17-6.67,11.24a67.25,67.25,0,0,1-21.73,14.72,63.06,63.06,0,0,1-25.32,5.67,55.93,55.93,0,0,1-51.93-34.82,55.52,55.52,0,0,1-4.47-21.48,57.5,57.5,0,0,1,4-20.74,55.43,55.43,0,0,1,10.94-18,56.54,56.54,0,0,1,41.78-18.5,55.32,55.32,0,0,1,33.32,10.84q23.28,16.92,23.08,49H209.59l-29.84.1Zm25.47-6.56v-29q-.21-9.33-.4-11.17a6.89,6.89,0,0,0-1.39-3.42q-2.79-3.87-11.34-3.87-8.76,0-11,4.46-1.38,2.68-1.39,14v29l12.14.39Z"/><path class="cls-1" d="M288.08,88.73v30.84q0,9,1.09,11.34,2.1,4.58,9.85,4.57a46.33,46.33,0,0,0,22.83-6.31,61.8,61.8,0,0,0,19.55-17.46,31,31,0,0,1,3.88-4.68,3.94,3.94,0,0,1,2.58-1,3.58,3.58,0,0,1,2.79,1.24,4.58,4.58,0,0,1,1.09,3.14q0,4.17-6.66,11.24a67.3,67.3,0,0,1-21.74,14.72A63,63,0,0,1,298,142.05a55.89,55.89,0,0,1-51.93-34.82,55.54,55.54,0,0,1-4.48-21.48,57.71,57.71,0,0,1,4-20.74,55.43,55.43,0,0,1,10.94-18,56.39,56.39,0,0,1,19.1-13.73,56.52,56.52,0,0,1,56,6.07q23.28,16.92,23.08,49H331.55l-29.84.1Zm25.46-6.56v-29q-.19-9.33-.39-11.17a6.9,6.9,0,0,0-1.4-3.42q-2.78-3.87-11.34-3.87-8.75,0-10.94,4.46-1.39,2.68-1.39,14v29l12.13.39Z"/><path class="cls-1" d="M457.11,52l11.32,18.82,10.82,18.32q16,26.47,21.78,35a114,114,0,0,0,13,15.78H454.81l-18.36-32.13q-10.11-18-15.48-26.06v4.57l.11,17.91.19,31,.1,4.67h-51l.48-47.94.12-27.66-.48-55.51-.12-4.67h51L421,69.43v5.38q27.72-25,38.25-32.73,13.71-10.35,23.94-10.35,7.65,0,7.65,5.57a4.49,4.49,0,0,1-1.39,3.34A4.82,4.82,0,0,1,486,42a9.47,9.47,0,0,1-2.77-.5,16.85,16.85,0,0,0-4.27-.79,19.14,19.14,0,0,0-8.82,2.42A96.67,96.67,0,0,0,457.11,52Z"/></g></g></svg>